<svg width="24" height="25" viewBox="0 0 24 25" fill="none" xmlns="http://www.w3.org/2000/svg">
<path d="M11.1795 12.56C11.6695 13.04 12.3395 13.04 12.8295 12.56L19.1495 6.28L20.3195 5.11C19.8795 4.88 19.3895 4.75 18.8595 4.75H5.14946C4.61946 4.75 4.12945 4.88 3.68945 5.11L4.85946 6.28L11.1795 12.56Z" fill="#FA7783"/>
<path d="M8.92977 12.4401L3.66977 7.20011L2.56977 6.11011C2.20977 6.62011 2.00977 7.23011 2.00977 7.90011V17.1001C2.00977 17.6601 2.15977 18.1901 2.40977 18.6401C2.41977 18.6301 2.41977 18.6301 2.42977 18.6201L3.56977 17.5301L8.92977 12.4401Z" fill="#FA7783"/>
<path d="M14.0895 13.4199L13.8895 13.6199C13.3495 14.1499 12.6795 14.4199 11.9995 14.4199C11.3295 14.4199 10.6595 14.1499 10.1195 13.6199L9.98946 13.4899L4.58945 18.6499L3.46946 19.7099C3.45946 19.7199 3.44945 19.7299 3.43945 19.7299C3.92945 20.0599 4.50946 20.2499 5.14946 20.2499H18.8595C19.4895 20.2499 20.0795 20.0599 20.5695 19.7299L19.4495 18.6399L14.0895 13.4199Z" fill="#FA7783"/>
<path d="M21.4494 6.11011L20.3494 7.20011L15.1494 12.3601L20.4494 17.5301L21.5994 18.6501C21.8594 18.2001 22.0094 17.6601 22.0094 17.1001V7.90011C22.0094 7.23011 21.8094 6.62011 21.4494 6.11011Z" fill="#FA7783"/>
</svg>
