<svg width="24" height="25" viewBox="0 0 24 25" fill="none" xmlns="http://www.w3.org/2000/svg">
<path d="M12 3.73999C9.11 3.73999 6.75 6.08999 6.75 8.98999C6.75 11.63 8.71 13.8 11.25 14.16V20.51C11.25 20.92 11.59 21.26 12 21.26C12.41 21.26 12.75 20.92 12.75 20.51V14.16C15.29 13.8 17.25 11.63 17.25 8.98999C17.25 6.08999 14.9 3.73999 12 3.73999ZM13.5 9.73999C13.09 9.73999 12.75 9.39999 12.75 8.98999C12.75 8.64999 12.53 8.35999 12.2 8.26999C11.8 8.14999 11.57 7.74 11.69 7.34C11.8 6.94 12.21 6.71001 12.61 6.82001C13.58 7.09001 14.25 7.98999 14.25 8.98999C14.25 9.39999 13.91 9.73999 13.5 9.73999Z" fill="#FA7783"/>
</svg>
