<svg width="135" height="36" viewBox="0 0 135 36" fill="none" xmlns="http://www.w3.org/2000/svg">
<path d="M4.72691 26.91C4.28819 26.9181 3.8717 26.8654 3.47745 26.7559C3.08321 26.6485 2.70918 26.4843 2.35941 26.2634C2.00358 26.0466 1.68212 25.7932 1.39503 25.5014C1.10995 25.2136 0.857233 24.8873 0.640903 24.5245C0.426595 24.1637 0.266874 23.7807 0.15972 23.3713C0.0525661 22.9639 0 22.5302 0 22.0701C0 21.4229 0 20.7763 0 20.1305C0 19.4833 0 18.8361 0 18.1889C0 17.5416 0 16.8944 0 16.2472C0 15.6 0 14.9521 0 14.3036C0 13.8536 0.0545879 13.4179 0.163764 12.9923C0.27294 12.5666 0.434682 12.1491 0.653033 11.7397C0.86532 11.3242 1.11602 10.9371 1.40109 10.5764C1.68818 10.2095 2.00964 9.87107 2.36952 9.563C2.7294 9.24278 3.10545 8.97525 3.49767 8.76244C3.89192 8.54963 4.30032 8.39154 4.72691 8.29223C5.17372 8.18684 5.5983 8.15036 6.00063 8.17873C6.40296 8.20913 6.78508 8.30642 7.14495 8.46856C7.50281 8.63881 7.82629 8.85972 8.10934 9.13333C8.39441 9.40694 8.64107 9.7292 8.84931 10.1041C9.06362 10.4791 9.22334 10.8905 9.33049 11.3384C9.43765 11.7843 9.49021 12.2667 9.49021 12.7815C9.49021 13.2017 9.49021 13.6212 9.49021 14.0401C9.49021 14.111 9.44978 14.1495 9.37093 14.1617C8.9167 14.232 8.46248 14.3022 8.00825 14.3725C7.55537 14.4414 7.10182 14.511 6.6476 14.5812C6.5829 14.5914 6.55257 14.563 6.55257 14.4941C6.55257 14.159 6.55257 13.8239 6.55257 13.4888C6.55257 12.8139 6.3787 12.287 6.03096 11.908C5.68321 11.531 5.24853 11.3932 4.72691 11.4945C4.2619 11.5837 3.84744 11.8694 3.48352 12.3478C3.1196 12.82 2.93966 13.3267 2.93966 13.8739C2.93966 14.5414 2.93966 15.2075 2.93966 15.8723C2.93966 16.5357 2.93966 17.1984 2.93966 17.8605C2.93966 18.5212 2.93966 19.1826 2.93966 19.8447C2.93966 20.5068 2.93966 21.1689 2.93966 21.8309C2.93966 22.3802 3.11758 22.8463 3.47139 23.2253C3.82722 23.6043 4.24573 23.7807 4.72691 23.7563C5.24853 23.728 5.68321 23.5091 6.03096 23.0895C6.3787 22.6619 6.55257 22.1532 6.55257 21.5654C6.55257 21.1371 6.55257 20.7088 6.55257 20.2805C5.98782 20.3291 5.42308 20.3777 4.85833 20.4264C4.77139 20.4345 4.72691 20.396 4.72691 20.3129C4.72691 19.8373 4.72691 19.3617 4.72691 18.8861C4.72691 18.4104 4.72691 17.9348 4.72691 17.4592C4.72691 17.3761 4.77139 17.3315 4.85833 17.3194C5.23707 17.2748 5.61514 17.2295 5.99254 17.1836C6.37129 17.1376 6.74936 17.091 7.12676 17.0437C7.5055 16.9978 7.88358 16.9519 8.26097 16.9059C8.63972 16.8586 9.01779 16.812 9.39519 16.7661C9.45786 16.758 9.49021 16.7965 9.49021 16.8857C9.49021 17.6315 9.49021 18.3767 9.49021 19.1212C9.49021 19.8657 9.49021 20.6101 9.49021 21.3546C9.49021 21.8613 9.43563 22.3457 9.32847 22.8098C9.22334 23.2719 9.0616 23.7138 8.84931 24.1313C8.63298 24.5508 8.38026 24.9278 8.09519 25.2622C7.8081 25.5966 7.48663 25.8885 7.13282 26.1378C6.77699 26.3871 6.39892 26.5756 5.99659 26.7053C5.59627 26.8329 5.17372 26.8998 4.72691 26.91ZM14.0513 26.46C13.5931 26.4695 13.1348 26.4789 12.6765 26.4884C12.2183 26.4979 11.76 26.5073 11.3017 26.5168C11.239 26.5188 11.2067 26.4722 11.2067 26.381C11.2067 25.981 11.2074 25.5824 11.2087 25.1852C11.2101 24.788 11.2114 24.3907 11.2128 23.9935C11.2141 23.5989 11.2148 23.2044 11.2148 22.8098C11.2161 22.4153 11.2175 22.0214 11.2188 21.6283C11.2202 21.2337 11.2215 20.8405 11.2229 20.4487C11.2229 20.0555 11.2235 19.6623 11.2249 19.2691C11.2262 18.8759 11.2276 18.4827 11.2289 18.0895C11.2289 17.6964 11.2296 17.3032 11.231 16.91C11.2323 16.5154 11.2337 16.1202 11.235 15.7243C11.2364 15.3284 11.237 14.9325 11.237 14.5366C11.2384 14.1381 11.2397 13.7388 11.2411 13.3388C11.2424 12.9389 11.2431 12.5376 11.2431 12.135C11.2444 11.7323 11.2458 11.3283 11.2471 10.923C11.2485 10.5149 11.2492 10.1062 11.2492 9.69677C11.2505 9.28737 11.2519 8.87526 11.2532 8.46045C11.2532 8.04429 11.2539 7.62746 11.2552 7.20995C11.2552 7.13293 11.2876 7.08631 11.3502 7.07213C11.7586 6.97755 12.1677 6.88364 12.5775 6.79041C12.9859 6.69583 13.3943 6.60125 13.8027 6.50666C14.2111 6.41343 14.6201 6.31953 15.0299 6.22495C15.4383 6.13171 15.8467 6.03781 16.2551 5.94323C16.6938 5.84392 17.1143 5.81554 17.5167 5.86013C17.919 5.90472 18.3052 6.0243 18.6711 6.21886C19.0391 6.41546 19.3686 6.6688 19.6618 6.9789C19.9529 7.28899 20.2076 7.65786 20.426 8.08348C20.6464 8.50707 20.8122 8.97322 20.9234 9.48193C21.0346 9.98862 21.0891 10.5379 21.0891 11.1236C21.0891 11.8857 20.9982 12.5889 20.8162 13.2314C20.6363 13.8678 20.422 14.409 20.1773 14.8589C19.9408 15.3028 19.7224 15.6351 19.5263 15.8581C19.963 16.4134 20.2926 17.0377 20.5109 17.7308C20.7293 18.424 20.8405 19.1799 20.8384 19.9987C20.8411 20.5149 20.8432 21.0304 20.8445 21.5452C20.8472 22.0599 20.8492 22.5747 20.8506 23.0895C20.8519 23.6043 20.8539 24.1191 20.8566 24.6339C20.858 25.1474 20.86 25.6615 20.8627 26.1763C20.8627 26.2736 20.8223 26.3242 20.7434 26.3263C20.2851 26.3357 19.8269 26.3452 19.3686 26.3546C18.9117 26.3627 18.4541 26.3715 17.9958 26.381C17.9331 26.383 17.9008 26.3526 17.9008 26.2938C17.9008 25.7871 17.9008 25.2798 17.9008 24.7717C17.9008 24.2651 17.9008 23.7584 17.9008 23.2517C17.9008 22.745 17.9008 22.2383 17.9008 21.7316C17.9008 21.2249 17.9008 20.7182 17.9008 20.2116C17.9008 19.5022 17.6946 18.9063 17.2842 18.428C16.8737 17.9517 16.3683 17.747 15.7678 17.8078C15.2354 17.8619 14.7024 17.9166 14.1686 17.972C14.1673 18.6665 14.1652 19.3603 14.1625 20.0535C14.1612 20.748 14.1592 21.4418 14.1565 22.1349C14.1551 22.8294 14.1531 23.5253 14.1504 24.2225C14.1491 24.9197 14.1477 25.6182 14.1464 26.3182C14.1464 26.4114 14.114 26.46 14.0513 26.46ZM16.2571 9.58327C15.9093 9.64948 15.5616 9.71569 15.2139 9.78189C14.8661 9.84945 14.5177 9.91633 14.1686 9.98254C14.1699 10.7514 14.1706 11.5168 14.1706 12.2788C14.1706 13.0369 14.1706 13.7922 14.1706 14.5448C14.5184 14.4961 14.8661 14.4475 15.2139 14.3988C15.5616 14.3502 15.9093 14.3015 16.2571 14.2529C16.7545 14.182 17.1952 13.8942 17.5834 13.3834C17.9776 12.8646 18.1758 12.2707 18.1758 11.5999C18.1758 10.9574 17.9857 10.4345 17.6076 10.0393C17.2275 9.63597 16.7767 9.48396 16.2571 9.58327ZM27.4011 26.5087C26.9705 26.5168 26.556 26.4519 26.1598 26.3161C25.7635 26.1803 25.3834 25.9756 25.0215 25.7C24.6616 25.4264 24.3361 25.1062 24.045 24.7413C23.7559 24.3765 23.4991 23.9671 23.2787 23.5111C23.0624 23.049 22.8986 22.5646 22.7915 22.0559C22.6823 21.5472 22.6277 21.0141 22.6277 20.4548C22.6304 19.6427 22.6331 18.8293 22.6358 18.0146C22.6371 17.1971 22.6392 16.3776 22.6419 15.5561C22.6446 14.7292 22.6466 13.9009 22.6479 13.0713C22.6506 12.2363 22.6526 11.3992 22.654 10.5602C22.654 9.96633 22.7086 9.39478 22.8178 8.83945C22.9249 8.2821 23.0887 7.74298 23.305 7.21805C23.5173 6.68704 23.768 6.19252 24.0571 5.73852C24.3442 5.28048 24.6697 4.86297 25.0336 4.48397C25.3975 4.09888 25.7756 3.78271 26.1699 3.5395C26.5661 3.29426 26.9765 3.12199 27.4031 3.0247C27.8459 2.92337 28.2644 2.90513 28.6607 2.97201C29.059 3.03889 29.433 3.18887 29.7848 3.426C30.1406 3.66516 30.4621 3.96714 30.7451 4.33601C31.0302 4.70488 31.2789 5.14063 31.4932 5.63921C31.7095 6.13171 31.8733 6.66678 31.9825 7.24237C32.0916 7.81594 32.1462 8.43005 32.1462 9.08266C32.1476 10.0109 32.1496 10.9358 32.1523 11.8573C32.1536 12.772 32.1557 13.6827 32.1584 14.5893C32.1597 15.4892 32.1611 16.3844 32.1624 17.2748C32.1638 18.1585 32.1658 19.0381 32.1685 19.9136C32.1664 20.5156 32.1139 21.0932 32.0067 21.6424C31.8996 22.1917 31.7378 22.7146 31.5255 23.2132C31.3072 23.7138 31.0545 24.1637 30.7654 24.563C30.4783 24.9602 30.1528 25.3068 29.7949 25.6047C29.435 25.9006 29.0549 26.1236 28.6566 26.2736C28.2584 26.4235 27.8398 26.5026 27.4011 26.5087ZM27.4011 22.7085C27.8904 22.6882 28.317 22.4146 28.6829 21.8775C29.0468 21.3303 29.2288 20.7263 29.2288 20.0595C29.2275 19.2016 29.2261 18.3409 29.2248 17.4775C29.2221 16.6087 29.22 15.7372 29.2187 14.863C29.2174 13.9806 29.2153 13.0956 29.2126 12.2079C29.2113 11.3148 29.2093 10.419 29.2066 9.52044C29.2066 8.76041 29.0367 8.14631 28.6971 7.68015C28.3574 7.214 27.9268 7.03362 27.4052 7.1309C26.9058 7.22413 26.4792 7.55247 26.1234 8.11793C25.7695 8.67934 25.5937 9.33398 25.5937 10.0839C25.5937 10.95 25.5937 11.8134 25.5937 12.6741C25.5937 13.5294 25.593 14.3826 25.5916 15.2339C25.5916 16.0797 25.5916 16.9228 25.5916 17.7632C25.5916 18.601 25.5916 19.436 25.5916 20.2683C25.5916 20.9554 25.7675 21.5411 26.1213 22.0235C26.4772 22.4998 26.9038 22.7268 27.4011 22.7085ZM38.4906 26.3952C38.0599 26.3972 37.6455 26.3242 37.2492 26.1763C36.8529 26.0304 36.4728 25.8094 36.1089 25.5156C35.749 25.2217 35.4255 24.8771 35.1344 24.486C34.8453 24.0928 34.5906 23.6509 34.3702 23.1605C34.1518 22.6619 33.9901 22.137 33.8809 21.5877C33.7717 21.0344 33.7192 20.4568 33.7192 19.8488C33.7219 18.9637 33.7246 18.0747 33.7273 17.1816C33.7286 16.279 33.7306 15.3717 33.7333 14.4596C33.736 13.5395 33.738 12.6146 33.7394 11.685C33.7421 10.746 33.7441 9.80351 33.7455 8.85769C33.7455 8.18887 33.8 7.54233 33.9072 6.92012C34.0164 6.29385 34.1781 5.68988 34.3965 5.10821C34.6088 4.51639 34.8594 3.96917 35.1465 3.46856C35.4357 2.96188 35.7612 2.50383 36.1251 2.09037C36.487 1.67084 36.8671 1.33034 37.2613 1.07092C37.6556 0.809466 38.068 0.633139 38.4946 0.539909C38.9353 0.444652 39.3559 0.444651 39.7521 0.541935C40.1504 0.641246 40.5245 0.839867 40.8763 1.1378C41.2321 1.44384 41.5535 1.8269 41.8386 2.28697C42.1237 2.75515 42.3724 3.29629 42.5867 3.9104C42.805 4.51842 42.9688 5.16698 43.078 5.85C43.1871 6.53098 43.2417 7.2444 43.2417 7.98822C43.2444 9.04078 43.2471 10.0832 43.2498 11.1155C43.2525 12.1289 43.2552 13.1321 43.2579 14.1252C43.2593 15.1008 43.2606 16.0668 43.2619 17.0235C43.2646 17.9625 43.266 18.8928 43.266 19.8143C43.266 20.4426 43.2114 21.0344 43.1043 21.5938C42.9971 22.1491 42.8374 22.672 42.621 23.1645C42.4027 23.6591 42.15 24.0989 41.8588 24.49C41.5697 24.8792 41.2462 25.2217 40.8843 25.5135C40.5245 25.8054 40.1464 26.0243 39.7461 26.1722C39.3478 26.3202 38.9293 26.3952 38.4906 26.3952ZM38.4946 22.4248C38.9839 22.4248 39.4125 22.1572 39.7744 21.612C40.1403 21.0567 40.3223 20.4304 40.3243 19.7292C40.323 18.8158 40.3216 17.895 40.3203 16.9667C40.3189 16.0236 40.3169 15.0731 40.3142 14.1151C40.3129 13.1395 40.3108 12.1566 40.3081 11.1662C40.3054 10.1609 40.3034 9.14684 40.3021 8.12401C40.3 7.25656 40.1302 6.53706 39.7906 5.96755C39.4489 5.40411 39.0182 5.16293 38.4986 5.23589C38.0013 5.30683 37.5747 5.65543 37.2189 6.27764C36.863 6.8958 36.6851 7.62746 36.6851 8.48072C36.6851 9.45896 36.6851 10.4325 36.6851 11.4013C36.6851 12.3592 36.6851 13.3111 36.6851 14.257C36.6851 15.1906 36.6851 16.1189 36.6851 17.0417C36.6838 17.951 36.6831 18.8557 36.6831 19.7555C36.6811 20.4933 36.859 21.1256 37.2148 21.6546C37.5706 22.1734 37.9972 22.4268 38.4946 22.4248ZM50.8032 27.3254C50.3085 27.2201 49.8145 27.1153 49.3212 27.0113C48.8279 26.91 48.3346 26.8107 47.8413 26.7134C47.7705 26.6992 47.7281 26.6364 47.72 26.5289C47.6512 26.0425 47.5818 25.5568 47.5117 25.0717C47.4416 24.5839 47.3715 24.0948 47.3015 23.6043C47.2314 23.1098 47.162 22.6146 47.0932 22.1187C47.0231 21.6174 46.953 21.1141 46.8829 20.6088C46.8129 20.0994 46.7428 19.588 46.6727 19.0745C46.6026 18.557 46.5325 18.0368 46.4624 17.5139C46.3923 16.987 46.3222 16.4573 46.2522 15.925C46.1821 15.3872 46.112 14.8474 46.0419 14.3056C45.9718 13.7584 45.9017 13.2085 45.8316 12.6558C45.7602 12.0978 45.6894 11.5371 45.6193 10.9736C45.5493 10.4048 45.4785 9.83391 45.4071 9.26102C45.337 8.68137 45.2669 8.09901 45.1968 7.51396C45.1254 6.92215 45.0546 6.32763 44.9845 5.73042C44.9144 5.1278 44.8437 4.5218 44.7722 3.91242C44.7021 3.29764 44.6314 2.68016 44.5599 2.05997C44.4898 1.43573 44.4191 0.808791 44.3476 0.179147C44.3315 0.0656486 44.3638 0.0048466 44.4427 0.000793094C44.9009 -0.00326041 45.3592 0.00822414 45.8175 0.0352475C46.2757 0.087943 46.734 0.150772 47.1923 0.223735C47.257 0.235896 47.2954 0.298725 47.3116 0.41425C47.3965 1.24792 47.4807 2.07889 47.5643 2.90715C47.6492 3.72731 47.7334 4.54274 47.817 5.35344C47.9019 6.15468 47.9868 6.9512 48.0718 7.74298C48.1553 8.52531 48.2389 9.3029 48.3225 10.0758C48.4074 10.8392 48.4916 11.5985 48.5752 12.3538C48.6601 13.0997 48.7443 13.8415 48.8279 14.5792C48.9115 15.3088 48.995 16.0344 49.0786 16.7559C49.1622 17.4694 49.2464 18.1787 49.3313 18.884C49.4122 18.2003 49.4924 17.5119 49.5719 16.8188C49.6528 16.1189 49.7337 15.4142 49.8145 14.7049C49.894 13.9874 49.9742 13.2666 50.0551 12.5423C50.1346 11.81 50.2142 11.0743 50.2937 10.3352C50.3746 9.5907 50.4548 8.84283 50.5343 8.09158C50.6138 7.33628 50.6926 6.57895 50.7708 5.81959C50.8503 5.05754 50.9299 4.29615 51.0094 3.53545C51.0876 2.77474 51.1664 2.01538 51.2459 1.25738C51.2621 1.15604 51.3026 1.11348 51.3652 1.12767C51.8181 1.23576 52.2703 1.34385 52.7218 1.45195C53.1747 1.56274 53.6276 1.67354 54.0805 1.78433C54.1674 1.8046 54.1977 1.8654 54.1755 1.96269C54.1081 2.51261 54.0414 3.06389 53.9753 3.61652C53.9079 4.16914 53.8406 4.72312 53.7732 5.27845C53.7071 5.83243 53.6404 6.38641 53.573 6.94039C53.5056 7.49437 53.4382 8.04767 53.3708 8.6003C53.3034 9.15157 53.236 9.7015 53.1687 10.2501C53.1013 10.7973 53.0339 11.3432 52.9665 11.8877C52.8991 12.4309 52.8317 12.9727 52.7643 13.5131C52.6969 14.0496 52.6295 14.5846 52.5621 15.1183C52.4934 15.648 52.4253 16.1763 52.3579 16.7032C52.2905 17.2261 52.2225 17.747 52.1537 18.2659C52.0863 18.7807 52.0183 19.2941 51.9495 19.8062C51.8821 20.3142 51.8141 20.8203 51.7453 21.3242C51.6766 21.8242 51.6085 22.3221 51.5411 22.818C51.4724 23.3111 51.4036 23.8023 51.3349 24.2914C51.2662 24.7778 51.1974 25.2622 51.1287 25.7446C51.0599 26.2256 50.9912 26.7046 50.9225 27.1815C50.9144 27.293 50.8739 27.3417 50.8032 27.3254ZM63.688 30.25C63.0289 30.096 62.3698 29.9427 61.7107 29.79C61.0502 29.6373 60.3904 29.4846 59.7313 29.3319C59.0722 29.1806 58.4131 29.0293 57.754 28.8779C57.0949 28.728 56.4358 28.578 55.7767 28.428C55.71 28.4138 55.6797 28.3469 55.6797 28.2314C55.6784 27.722 55.677 27.2126 55.6757 26.7032C55.6743 26.1911 55.6736 25.6784 55.6736 25.1649C55.6723 24.6488 55.6709 24.132 55.6696 23.6145C55.6682 23.0956 55.6676 22.5754 55.6676 22.0539C55.6662 21.5296 55.6649 21.0047 55.6635 20.4791C55.6622 19.9508 55.6608 19.4211 55.6595 18.8901C55.6595 18.3564 55.6588 17.8213 55.6575 17.2849C55.6561 16.7472 55.6548 16.2074 55.6534 15.6656C55.6521 15.1224 55.6507 14.5779 55.6494 14.032C55.648 13.4848 55.6467 12.9355 55.6453 12.3842C55.644 11.8316 55.6426 11.2783 55.6413 10.7243C55.6399 10.1677 55.6386 9.61097 55.6372 9.05429C55.6359 8.49491 55.6345 7.93552 55.6332 7.37614C55.6318 6.81405 55.6305 6.25197 55.6292 5.68988C55.6278 5.1278 55.6265 4.56504 55.6251 4.0016C55.6238 3.43951 55.6224 2.8781 55.6211 2.31737C55.619 2.21603 55.6514 2.17144 55.7141 2.18766C56.3651 2.34845 57.0154 2.50991 57.6651 2.67205C58.3147 2.83554 58.9651 2.99903 59.6161 3.16252C60.2658 3.32602 60.9154 3.48951 61.5651 3.653C62.2161 3.81784 62.8664 3.98201 63.5161 4.1455C63.5788 4.16171 63.6111 4.23062 63.6131 4.35223C63.6158 5.05618 63.6192 5.76082 63.6232 6.46613C63.6273 7.17279 63.6313 7.87877 63.6354 8.58408C63.6354 8.68542 63.603 8.72596 63.5404 8.71177C63.1252 8.61313 62.7101 8.51517 62.2949 8.41789C61.8798 8.32061 61.464 8.224 61.0475 8.12806C60.6324 8.03213 60.2172 7.9362 59.8021 7.84026C59.387 7.74433 58.9718 7.64907 58.5567 7.55449C58.5607 8.56111 58.5648 9.56503 58.5688 10.5662C58.5729 11.5675 58.5769 12.566 58.5809 13.5618C58.9974 13.6483 59.4132 13.7347 59.8284 13.8212C60.2449 13.909 60.6607 13.9975 61.0758 14.0867C61.4923 14.1759 61.9088 14.2657 62.3253 14.3563C62.7418 14.4454 63.1582 14.536 63.5747 14.6279C63.6374 14.64 63.6698 14.6988 63.6698 14.7961C63.6778 15.5095 63.6853 16.2229 63.692 16.9363C63.7001 17.647 63.7082 18.3571 63.7163 19.0664C63.7163 19.1678 63.6859 19.2083 63.6232 19.1941C63.2054 19.1049 62.7869 19.0158 62.3677 18.9266C61.9485 18.8374 61.5294 18.7489 61.1102 18.6611C60.6924 18.5746 60.2738 18.4881 59.8547 18.4017C59.4368 18.3152 59.0183 18.2294 58.5991 18.1443C58.6018 18.6901 58.6039 19.2353 58.6052 19.7799C58.6079 20.3217 58.6106 20.8628 58.6133 21.4033C58.6146 21.941 58.6167 22.4788 58.6194 23.0166C58.6207 23.5516 58.6227 24.0853 58.6254 24.6177C59.0446 24.7082 59.4645 24.7981 59.885 24.8873C60.3042 24.9791 60.7234 25.0703 61.1425 25.1609C61.5631 25.2528 61.9829 25.3446 62.4021 25.4365C62.8213 25.5284 63.2411 25.6209 63.6617 25.7142C63.7243 25.7284 63.7567 25.7932 63.7567 25.9169C63.7607 26.6208 63.7648 27.3241 63.7688 28.0267C63.7729 28.728 63.7769 29.4285 63.7809 30.1284C63.783 30.2217 63.7526 30.2642 63.688 30.25ZM77.5412 33.4807C77.0815 33.3739 76.6212 33.2672 76.1603 33.1605C75.7007 33.0537 75.2404 32.947 74.7794 32.8402C74.7086 32.824 74.6702 32.7511 74.6702 32.6295C74.6608 31.7296 74.652 30.829 74.644 29.9278C74.6345 29.0266 74.6258 28.1253 74.6177 27.2241C74.6082 26.3242 74.5995 25.425 74.5914 24.5265C74.5819 23.6293 74.5732 22.7342 74.5651 21.8411C74.557 20.9493 74.5489 20.0589 74.5408 19.1698C74.5328 18.2848 74.5247 17.4011 74.5166 16.5188C74.5085 15.6406 74.5004 14.7636 74.4923 13.8881C74.4842 13.0166 74.4768 12.1464 74.4701 11.2776C73.9444 11.1547 73.4188 11.0324 72.8931 10.9108C72.3661 10.7878 71.8397 10.6649 71.3141 10.5419C71.2352 10.5237 71.1948 10.4548 71.1928 10.3352C71.1928 9.65015 71.1921 8.96511 71.1908 8.28007C71.1894 7.59638 71.1881 6.91269 71.1867 6.229C71.1867 6.13577 71.217 6.09321 71.2817 6.10942C71.6659 6.2067 72.05 6.30399 72.4342 6.40127C72.8183 6.49721 73.2024 6.59381 73.5866 6.6911C73.9707 6.78703 74.3548 6.88364 74.739 6.98092C75.1231 7.07686 75.5073 7.17279 75.8914 7.26872C76.2755 7.36465 76.6597 7.46059 77.0438 7.55652C77.4279 7.65245 77.8121 7.74771 78.1962 7.84229C78.5817 7.93823 78.9665 8.03348 79.3506 8.12806C79.7348 8.22265 80.1189 8.31655 80.5031 8.40978C80.59 8.43208 80.6345 8.48883 80.6345 8.58003C80.6412 9.22994 80.648 9.87985 80.6547 10.5298C80.6601 11.1851 80.6661 11.8411 80.6729 12.4977C80.6749 12.6133 80.6426 12.6619 80.5799 12.6477C80.0488 12.5329 79.5171 12.4167 78.9847 12.2991C78.4537 12.1816 77.9219 12.0633 77.3895 11.9444C77.399 12.8024 77.4077 13.6631 77.4158 14.5265C77.4252 15.394 77.4347 16.2634 77.4441 17.1349C77.4549 18.0132 77.465 18.8935 77.4744 19.7758C77.4839 20.6622 77.494 21.5512 77.5048 22.443C77.5155 23.3402 77.5263 24.2387 77.5371 25.1386C77.5479 26.0425 77.5587 26.9485 77.5695 27.8565C77.5802 28.7644 77.591 29.6738 77.6018 30.5845C77.6126 31.4952 77.6234 32.4052 77.6342 33.3145C77.6342 33.4381 77.6038 33.4949 77.5412 33.4807ZM90.1105 35.9999C89.4541 35.9432 88.7977 35.8669 88.1413 35.7709C87.4836 35.6547 86.8258 35.5318 86.1681 35.4021C85.509 35.2656 84.8499 35.1264 84.1908 34.9845C83.5317 34.84 82.8726 34.694 82.2135 34.5468C82.1488 34.5326 82.1185 34.4596 82.1164 34.334C82.1097 33.7732 82.103 33.2125 82.0962 32.6517C82.0895 32.091 82.0827 31.531 82.076 30.9716C82.0693 30.4122 82.0632 29.8535 82.0578 29.2955C82.0511 28.7388 82.0443 28.1828 82.0376 27.6274C82.0308 27.0748 82.0241 26.5235 82.0174 25.9736C82.012 25.425 82.0059 24.8778 81.9992 24.3319C81.9938 23.7901 81.9877 23.2497 81.981 22.7105C81.9756 22.1741 81.9695 21.6391 81.9628 21.1054C81.9574 20.5743 81.952 20.0454 81.9466 19.5184C81.9412 18.9942 81.9358 18.4712 81.9304 17.9497C81.925 17.4322 81.9196 16.9161 81.9143 16.4013C81.9089 15.8878 81.9035 15.3764 81.8981 14.867C81.8927 14.3603 81.888 13.855 81.8839 13.351C81.8785 12.8484 81.8738 12.3471 81.8698 11.8472C81.8644 11.3486 81.8597 10.8513 81.8556 10.3555C81.8516 9.86094 81.8469 9.36641 81.8415 8.87188C81.8415 8.7827 81.8738 8.7442 81.9365 8.76041C82.5862 8.91715 83.2358 9.07321 83.8855 9.22859C84.5351 9.38127 85.1848 9.5326 85.8345 9.68258C86.4855 9.82851 87.1358 9.97038 87.7855 10.1082C88.4352 10.2352 89.0848 10.3514 89.7345 10.4568C89.7972 10.4649 89.8295 10.5176 89.8315 10.6169C89.8383 11.1952 89.845 11.7769 89.8517 12.3619C89.8585 12.9565 89.8652 13.5557 89.872 14.1597C89.874 14.2448 89.8416 14.2833 89.779 14.2772C89.3638 14.2286 88.9494 14.1779 88.5356 14.1252C88.1204 14.0658 87.7053 14.005 87.2902 13.9428C86.875 13.8753 86.4606 13.8057 86.0468 13.7341C85.6316 13.6597 85.2165 13.5841 84.8013 13.5071C84.8121 14.4042 84.8229 15.3068 84.8337 16.2148C84.8445 17.1349 84.8553 18.0618 84.866 18.9955C85.2812 19.0563 85.6963 19.1158 86.1115 19.1739C86.5266 19.2293 86.9417 19.2826 87.3569 19.334C87.772 19.3826 88.1871 19.4286 88.6023 19.4718C89.0161 19.5123 89.4305 19.5502 89.8457 19.5853C89.9084 19.5914 89.9427 19.64 89.9427 19.7312C89.9549 20.4041 89.9677 21.0817 89.9811 21.764C89.9933 22.4558 90.0067 23.1517 90.0216 23.8516C90.0216 23.9509 89.9933 23.9955 89.9286 23.9914C89.5121 23.9631 89.0949 23.932 88.6771 23.8982C88.2606 23.8604 87.8434 23.8205 87.4256 23.7786C87.0091 23.7313 86.592 23.6827 86.1741 23.6327C85.7576 23.5773 85.3405 23.5206 84.9227 23.4625C84.9294 24.0137 84.9368 24.5677 84.9449 25.1244C84.9516 25.6838 84.959 26.2459 84.9671 26.8107C84.9739 27.3781 84.9813 27.9477 84.9894 28.5192C84.9975 29.0935 85.0056 29.6697 85.0136 30.248C85.4315 30.3156 85.85 30.3811 86.2692 30.4446C86.687 30.5041 87.1048 30.5608 87.5227 30.6149C87.9405 30.6608 88.3583 30.704 88.7762 30.7446C89.194 30.7757 89.6112 30.8027 90.0276 30.8256C90.0923 30.8297 90.1247 30.8946 90.1267 31.0303C90.1388 31.814 90.151 32.6031 90.1631 33.3976C90.1752 34.2042 90.188 35.0163 90.2015 35.8337C90.2035 35.9472 90.1752 36.002 90.1105 35.9999ZM96.7965 35.5419C96.3598 35.627 95.9434 35.6169 95.543 35.5135C95.1427 35.4081 94.7606 35.2034 94.3927 34.8994C94.0308 34.5873 93.7052 34.2002 93.4121 33.7401C93.1189 33.2719 92.8622 32.7328 92.6398 32.1268C92.4214 31.5107 92.2556 30.8581 92.1404 30.171C92.0252 29.49 91.9625 28.7766 91.9503 28.0368C91.9382 27.0329 91.9261 26.0378 91.914 25.0514C91.9032 24.084 91.8917 23.1253 91.8796 22.1755C91.8702 21.2432 91.86 20.3196 91.8493 19.4049C91.8398 18.5077 91.8304 17.6187 91.821 16.7377C91.8129 16.1195 91.8573 15.5379 91.9524 14.9927C92.0494 14.4536 92.197 13.9489 92.3972 13.4787C92.5973 13.0065 92.8359 12.5829 93.1129 12.2099C93.3899 11.835 93.7073 11.5067 94.0611 11.2229C94.423 10.9331 94.8031 10.7162 95.2034 10.5723C95.6057 10.4264 96.0262 10.3514 96.469 10.3514C96.9199 10.3514 97.3465 10.4223 97.7488 10.5642C98.1491 10.7061 98.5292 10.9169 98.881 11.1986C99.2409 11.4823 99.5623 11.8168 99.8494 12.1998C100.134 12.5849 100.385 13.0206 100.6 13.5071C100.818 13.9894 100.984 14.5022 101.095 15.0454C101.208 15.5885 101.267 16.1641 101.275 16.7722C101.28 17.2734 101.286 17.7747 101.291 18.276C101.293 18.3611 101.263 18.4077 101.2 18.4098C100.747 18.4273 100.294 18.4442 99.8393 18.4604C99.3864 18.474 98.9336 18.4868 98.4807 18.4989C98.418 18.501 98.3857 18.4564 98.3836 18.3692C98.3782 17.8598 98.3722 17.3518 98.3654 16.8451C98.3574 16.1175 98.1754 15.4953 97.8236 14.9785C97.4698 14.4617 97.0331 14.2063 96.5135 14.2063C95.9373 14.2022 95.4986 14.4617 95.1953 14.9886C94.8941 15.5156 94.7485 16.1337 94.7566 16.8471C94.7674 17.7214 94.7788 18.6016 94.7909 19.488C94.8017 20.3906 94.8132 21.3006 94.8253 22.218C94.8388 23.1503 94.8516 24.0901 94.8637 25.0372C94.8772 26.0006 94.8914 26.9708 94.9062 27.9477C94.9183 28.8779 95.1023 29.6339 95.4581 30.2014C95.8119 30.7547 96.2365 30.9979 96.7318 30.9371C97.2494 30.8723 97.676 30.5014 98.0116 29.8285C98.3493 29.1495 98.513 28.426 98.5029 27.6558C98.4948 27.0964 98.4874 26.5391 98.4807 25.9837C98.4787 25.8885 98.511 25.8398 98.5737 25.8358C99.0293 25.7966 99.4855 25.7567 99.9424 25.7162C100.398 25.673 100.854 25.6291 101.309 25.5845C101.372 25.5784 101.404 25.6189 101.404 25.7122C101.411 26.2499 101.418 26.789 101.424 27.3295C101.432 27.9902 101.388 28.6286 101.291 29.2509C101.192 29.8751 101.04 30.4791 100.836 31.0689C100.628 31.6546 100.385 32.1978 100.106 32.6943C99.8272 33.1949 99.5138 33.6489 99.1661 34.0583C98.8183 34.4616 98.4463 34.7879 98.0521 35.0372C97.6558 35.2865 97.2373 35.4547 96.7965 35.5419ZM106.081 33.3104C105.626 33.4037 105.172 33.4969 104.718 33.5901C104.264 33.6834 103.809 33.7766 103.355 33.8698C103.295 33.882 103.26 33.8293 103.26 33.7138C103.255 33.2098 103.249 32.7058 103.242 32.2018C103.237 31.6992 103.231 31.1972 103.226 30.6959C103.22 30.1947 103.215 29.6947 103.21 29.1961C103.204 28.6989 103.199 28.2024 103.193 27.7065C103.188 27.2133 103.183 26.7208 103.177 26.229C103.172 25.7399 103.166 25.2514 103.161 24.7636C103.156 24.2786 103.15 23.7942 103.145 23.3105C103.14 22.8308 103.135 22.3511 103.131 21.8715C103.125 21.3959 103.12 20.9209 103.115 20.4467C103.111 19.9751 103.106 19.5049 103.1 19.036C103.096 18.5685 103.092 18.1017 103.086 17.6356C103.082 17.1735 103.078 16.7114 103.072 16.2493C103.068 15.7899 103.064 15.3311 103.06 14.8731C103.056 14.4164 103.052 13.9604 103.048 13.505C103.042 13.051 103.038 12.5977 103.034 12.1451C103.03 11.6924 103.026 11.2405 103.022 10.7892C103.022 10.7081 103.06 10.6656 103.141 10.6635C103.59 10.6595 104.039 10.6541 104.489 10.6473C104.938 10.6419 105.388 10.6365 105.838 10.6311C105.919 10.6291 105.957 10.6696 105.959 10.7507C105.963 11.456 105.968 12.1626 105.973 12.8707C105.977 13.58 105.982 14.2901 105.988 15.0008C105.993 15.7155 105.998 16.4323 106.004 17.1512C106.009 17.8727 106.014 18.5956 106.02 19.3198C106.624 19.2792 107.228 19.2374 107.833 19.1941C108.437 19.1495 109.041 19.1043 109.645 19.0583C109.638 18.3544 109.631 17.6518 109.625 16.9505C109.618 16.2506 109.612 15.5521 109.607 14.8549C109.6 14.1604 109.593 13.4658 109.586 12.7713C109.581 12.0796 109.575 11.3878 109.568 10.696C109.568 10.6169 109.6 10.5744 109.663 10.5744C110.113 10.5676 110.563 10.5602 111.012 10.5521C111.462 10.5453 111.912 10.5379 112.362 10.5298C112.441 10.5298 112.481 10.5683 112.481 10.6453C112.487 11.075 112.492 11.504 112.496 11.9323C112.5 12.3619 112.504 12.7916 112.508 13.2213C112.513 13.651 112.518 14.0806 112.522 14.5103C112.526 14.94 112.531 15.3703 112.536 15.8013C112.54 16.2337 112.545 16.6654 112.55 17.0964C112.554 17.5302 112.558 17.9639 112.562 18.3976C112.568 18.8313 112.572 19.2664 112.576 19.7028C112.582 20.1393 112.587 20.5757 112.591 21.0121C112.596 21.4512 112.601 21.8904 112.607 22.3295C112.611 22.7713 112.616 23.2132 112.621 23.655C112.626 24.0982 112.631 24.542 112.635 24.9866C112.641 25.4325 112.646 25.8797 112.651 26.3283C112.657 26.7769 112.661 27.2261 112.665 27.6761C112.671 28.1274 112.676 28.58 112.682 29.034C112.687 29.488 112.692 29.9433 112.698 30.4C112.703 30.8567 112.709 31.3148 112.714 31.7742C112.716 31.8775 112.676 31.9404 112.597 31.9566C112.148 32.0512 111.698 32.1451 111.248 32.2383C110.798 32.3329 110.348 32.4268 109.898 32.52C109.819 32.5362 109.778 32.4896 109.778 32.3822C109.77 31.5755 109.762 30.7702 109.752 29.9663C109.744 29.1664 109.736 28.3685 109.728 27.5727C109.72 26.7823 109.712 25.9932 109.704 25.2055C109.697 24.4231 109.689 23.6435 109.681 22.8666C109.079 22.9328 108.476 22.9983 107.872 23.0632C107.268 23.1267 106.665 23.1895 106.062 23.2517C106.07 24.0583 106.079 24.867 106.089 25.6777C106.098 26.4938 106.107 27.3126 106.115 28.1341C106.124 28.9597 106.134 29.7873 106.143 30.6169C106.153 31.4506 106.162 32.2863 106.172 33.124C106.174 33.2355 106.143 33.2983 106.081 33.3104ZM117.295 30.9675C116.894 31.0526 116.493 31.1378 116.092 31.2229C115.691 31.3067 115.289 31.3911 114.887 31.4762C114.764 31.5026 114.699 31.4418 114.697 31.2979C114.693 30.8506 114.689 30.4048 114.685 29.9602C114.68 29.517 114.675 29.0745 114.671 28.6327C114.667 28.1922 114.663 27.7524 114.659 27.3133C114.654 26.8755 114.649 26.4391 114.645 26.004C114.641 25.5689 114.637 25.1345 114.633 24.7008C114.629 24.2684 114.625 23.8374 114.621 23.4077C114.616 22.9781 114.612 22.5484 114.608 22.1187C114.604 21.6918 114.6 21.2648 114.596 20.8378C114.592 20.4122 114.588 19.9873 114.584 19.563C114.581 19.1387 114.578 18.7151 114.574 18.2922C114.57 17.8707 114.566 17.4484 114.562 17.0255C114.558 16.6053 114.554 16.1844 114.552 15.7628C114.548 15.3426 114.544 14.9224 114.54 14.5022C114.536 14.082 114.532 13.6624 114.53 13.2436C114.525 12.8234 114.521 12.4038 114.517 11.985C114.515 11.5648 114.511 11.1452 114.507 10.7264C114.505 10.5703 114.568 10.4933 114.693 10.4913C115.059 10.4845 115.424 10.4777 115.789 10.471C116.153 10.4656 116.518 10.4595 116.883 10.4527C117.057 10.927 117.231 11.3999 117.405 11.8715C117.578 12.3403 117.752 12.8085 117.926 13.276C118.1 13.7408 118.274 14.2049 118.448 14.6684C118.622 15.1278 118.795 15.5872 118.967 16.0466C119.141 16.5033 119.314 16.9586 119.487 17.4126C119.661 17.8653 119.834 18.3165 120.007 18.7665C120.18 19.2151 120.354 19.663 120.526 20.1102C120.699 20.5547 120.871 20.9993 121.044 21.4438C121.036 20.9898 121.028 20.5365 121.021 20.0839C121.013 19.6326 121.006 19.1813 120.999 18.73C120.991 18.2801 120.983 17.8294 120.975 17.3782C120.968 16.9282 120.961 16.4783 120.953 16.0283C120.946 15.5784 120.939 15.1278 120.93 14.6765C120.922 14.2266 120.915 13.7753 120.908 13.3226C120.9 12.8713 120.893 12.4194 120.886 11.9667C120.878 11.5127 120.87 11.0581 120.862 10.6027C120.862 10.4548 120.932 10.3798 121.074 10.3778C121.474 10.371 121.875 10.3636 122.275 10.3555C122.677 10.3487 123.078 10.342 123.478 10.3352C123.573 10.3332 123.619 10.4041 123.619 10.55C123.622 10.9432 123.625 11.3357 123.628 11.7276C123.63 12.1194 123.633 12.5106 123.636 12.9011C123.637 13.2902 123.639 13.6793 123.642 14.0685C123.644 14.4576 123.647 14.8461 123.65 15.2339C123.651 15.6216 123.653 16.0094 123.656 16.3972C123.659 16.785 123.661 17.1721 123.664 17.5585C123.665 17.9463 123.667 18.3341 123.67 18.7219C123.673 19.1097 123.675 19.4975 123.676 19.8852C123.679 20.2744 123.681 20.6635 123.684 21.0527C123.687 21.4431 123.69 21.8336 123.692 22.2241C123.694 22.616 123.696 23.0085 123.698 23.4017C123.701 23.7962 123.704 24.1914 123.706 24.5873C123.709 24.9846 123.712 25.3825 123.714 25.7811C123.717 26.181 123.72 26.5823 123.723 26.985C123.725 27.389 123.728 27.7936 123.731 28.199C123.735 28.6084 123.738 29.0178 123.741 29.4272C123.741 29.5427 123.702 29.6076 123.623 29.6258C123.272 29.7001 122.92 29.7751 122.568 29.8508C122.215 29.9251 121.863 29.9994 121.511 30.0737C121.334 29.6562 121.158 29.2387 120.981 28.8212C120.803 28.4037 120.626 27.9862 120.449 27.5687C120.273 27.1511 120.096 26.733 119.92 26.3141C119.742 25.8952 119.564 25.4757 119.388 25.0555C119.21 24.6339 119.033 24.2124 118.856 23.7908C118.678 23.3679 118.501 22.9443 118.324 22.52C118.146 22.0944 117.969 21.6681 117.791 21.2411C117.614 20.8128 117.437 20.3838 117.259 19.9542C117.27 20.3919 117.28 20.8304 117.289 21.2695C117.3 21.7086 117.311 22.1485 117.322 22.5889C117.332 23.0308 117.343 23.4733 117.354 23.9165C117.365 24.361 117.376 24.8055 117.386 25.2501C117.397 25.6973 117.408 26.1452 117.419 26.5938C117.429 27.0437 117.44 27.4943 117.451 27.9456C117.462 28.3983 117.473 28.8523 117.483 29.3076C117.495 29.7643 117.507 30.2217 117.518 30.6797C117.518 30.8398 117.443 30.9371 117.295 30.9675ZM130.283 28.4706C129.857 28.5618 129.446 28.5861 129.052 28.5456C128.658 28.503 128.28 28.3935 127.92 28.2192C127.562 28.0389 127.238 27.8098 126.947 27.5322C126.658 27.2525 126.403 26.9242 126.183 26.5472C125.965 26.1641 125.801 25.7507 125.692 25.3088C125.581 24.867 125.524 24.3968 125.522 23.8982C125.521 23.1794 125.519 22.4633 125.518 21.7499C125.518 21.0391 125.517 20.3291 125.516 19.6197C125.516 18.9131 125.515 18.2064 125.514 17.4998C125.512 16.7945 125.512 16.0878 125.512 15.3798C125.51 14.8832 125.562 14.4069 125.667 13.9529C125.775 13.501 125.934 13.0713 126.151 12.6639C126.361 12.2545 126.612 11.8836 126.897 11.5533C127.184 11.2249 127.509 10.9371 127.871 10.6878C128.233 10.4386 128.611 10.248 129.005 10.1204C129.4 9.99065 129.81 9.92376 130.237 9.91768C130.677 9.90958 131.098 9.96227 131.494 10.0717C131.891 10.1812 132.265 10.3474 132.616 10.5683C132.972 10.7872 133.292 11.0425 133.577 11.3364C133.86 11.6283 134.108 11.9546 134.323 12.3214C134.539 12.6781 134.701 13.0571 134.81 13.4604C134.919 13.8638 134.972 14.2894 134.972 14.7414C134.974 15.3886 134.977 16.0358 134.98 16.683C134.981 17.3302 134.983 17.9767 134.986 18.6226C134.989 19.2698 134.991 19.917 134.992 20.5642C134.995 21.2114 134.997 21.8593 135 22.5079C135 22.9558 134.947 23.3915 134.842 23.8171C134.737 24.2448 134.577 24.6623 134.365 25.0717C134.151 25.4872 133.9 25.8763 133.615 26.2351C133.328 26.5999 133.009 26.9363 132.653 27.2444C132.297 27.5545 131.921 27.8139 131.527 28.0186C131.132 28.2253 130.718 28.3753 130.283 28.4706ZM130.271 25.248C130.758 25.1629 131.181 24.8812 131.539 24.3988C131.901 23.9185 132.081 23.4199 132.079 22.899C132.076 22.2342 132.073 21.5701 132.07 20.9067C132.068 20.2447 132.064 19.5833 132.06 18.9225C132.058 18.2618 132.055 17.6011 132.052 16.9404C132.05 16.2797 132.047 15.6183 132.044 14.9562C132.044 14.3988 131.872 13.9388 131.535 13.5699C131.195 13.199 130.764 13.0247 130.245 13.049C129.749 13.0713 129.323 13.2821 128.969 13.6895C128.615 14.0989 128.439 14.5995 128.441 15.1933C128.443 15.8797 128.445 16.5654 128.447 17.2505C128.449 17.9355 128.451 18.6199 128.453 19.3036C128.455 19.99 128.456 20.677 128.458 21.3648C128.46 22.0552 128.462 22.747 128.464 23.4402C128.466 24.0178 128.646 24.49 128.999 24.8508C129.353 25.2055 129.778 25.3352 130.271 25.248Z" fill="#47153D"/>
</svg>
